# xmcd CD database file
#
# Track frame offsets:
#	150
#	30487
#	75957
#	115273
#	158704
#	209043
#	258700
#
# Disc length: 3879 seconds
#
# Revision: 0
# Processed by: cddbd v1.5.1PL2 Copyright (c) Steve Scherf et al.
# Submitted via: CDex 1.50
#
DISCID=550f2507
DTITLE=Paula Shocron and Marcelo Gutfraind - Percepciones
DYEAR=2005
DGENRE=Jazz
TTITLE0=Seven Down
TTITLE1=Bronce
TTITLE2=Vuelve Viento
TTITLE3=Lejanías
TTITLE4=Señales de Humo
TTITLE5=La Jungla
TTITLE6=Caleidoscopio
EXTD=YEAR: 2005
EXTT0=
EXTT1=
EXTT2=
EXTT3=
EXTT4=
EXTT5=
EXTT6=
PLAYORDER=
